<svg width="20" height="20" viewBox="0 0 20 20" fill="none" xmlns="http://www.w3.org/2000/svg">
<path d="M3 0.25H17C18.5188 0.25 19.75 1.48122 19.75 3V17C19.75 18.5188 18.5188 19.75 17 19.75H3C1.48122 19.75 0.25 18.5188 0.25 17V3C0.25 1.48122 1.48122 0.25 3 0.25Z" stroke="white" stroke-width="0.5"/>
<path d="M17.3013 2.12255C16.5793 1.68245 15.774 2.53122 15.3019 3.0342C14.2189 4.22877 13.3026 5.61196 12.2751 6.8694C11.1365 8.25259 10.0813 9.63578 8.91497 10.9876C8.24851 11.7421 7.52651 12.5594 7.0822 13.5025C6.08251 12.4022 5.22166 11.2076 4.11089 10.2331C3.30558 9.54152 1.97266 9.03855 2.00043 10.7047C2.05597 12.8738 3.74989 15.2001 4.99951 16.6775C5.52712 17.3062 6.22135 17.9664 7.02666 17.9978C7.99859 18.0607 8.99828 16.7404 9.58143 16.0174C10.6089 14.7599 11.442 13.3452 12.3861 12.0564C13.608 10.3589 14.8576 8.6927 16.0517 6.96371C16.8014 5.89488 19.1618 3.2542 17.3013 2.12255ZM3.22223 10.5789C3.19446 10.5789 3.16669 10.5789 3.11115 10.6103C3.00007 10.5789 2.91677 10.5474 2.80569 10.4846C2.889 10.4217 3.02784 10.4531 3.22223 10.5789Z" fill="white"/>
</svg>
