<svg width="209" height="187" viewBox="0 0 209 187" fill="none" xmlns="http://www.w3.org/2000/svg">
<rect width="205" height="187" rx="15" fill="url(#paint0_linear_6_2)"/>
<path d="M40.7955 128H15.7045L27.2955 58.1818H51.9091C58.9318 58.1818 64.7614 59.6136 69.3977 62.4773C74.0568 65.3409 77.3409 69.4432 79.25 74.7841C81.1591 80.1023 81.5 86.4545 80.2727 93.8409C79.0909 100.977 76.7386 107.102 73.2159 112.216C69.6932 117.307 65.1818 121.216 59.6818 123.943C54.1818 126.648 47.8864 128 40.7955 128ZM32.5795 115.352H41.6477C46.0341 115.352 49.875 114.534 53.1705 112.898C56.4886 111.261 59.2045 108.739 61.3182 105.33C63.4545 101.92 64.9659 97.5568 65.8523 92.2386C66.6932 87.1932 66.6364 83.1023 65.6818 79.9659C64.75 76.8068 62.9432 74.5 60.2614 73.0455C57.5795 71.5682 54.0568 70.8295 49.6932 70.8295H39.9773L32.5795 115.352ZM155.366 94.0455C154.094 101.5 151.628 107.83 147.969 113.034C144.332 118.239 139.889 122.193 134.639 124.898C129.412 127.602 123.776 128.955 117.73 128.955C111.389 128.955 105.923 127.511 101.332 124.625C96.7642 121.739 93.4574 117.568 91.4119 112.114C89.3665 106.636 88.9801 100.034 90.2528 92.3068C91.4801 84.8295 93.9233 78.4886 97.5824 73.2841C101.241 68.0568 105.707 64.0795 110.98 61.3523C116.253 58.6023 121.923 57.2273 127.991 57.2273C134.287 57.2273 139.719 58.6818 144.287 61.5909C148.878 64.5 152.185 68.7045 154.207 74.2045C156.253 79.6818 156.639 86.2955 155.366 94.0455ZM140.673 92.3068C141.469 87.5114 141.435 83.4886 140.571 80.2386C139.73 76.9659 138.185 74.4886 135.935 72.8068C133.685 71.125 130.844 70.2841 127.412 70.2841C123.685 70.2841 120.264 71.2159 117.151 73.0795C114.06 74.9432 111.446 77.6477 109.31 81.1932C107.196 84.7159 105.73 89 104.912 94.0455C104.094 98.8636 104.116 102.886 104.98 106.114C105.866 109.341 107.446 111.784 109.719 113.443C112.014 115.08 114.866 115.898 118.276 115.898C121.98 115.898 125.366 114.989 128.435 113.17C131.526 111.33 134.128 108.659 136.241 105.159C138.355 101.636 139.832 97.3523 140.673 92.3068ZM189.244 58.1818L179.835 107.068H167.426L174.142 58.1818H189.244ZM170.869 128.886C168.574 128.886 166.688 128.091 165.21 126.5C163.756 124.909 163.097 122.977 163.233 120.705C163.392 118.455 164.335 116.557 166.062 115.011C167.812 113.443 169.824 112.659 172.097 112.659C174.278 112.659 176.119 113.443 177.619 115.011C179.119 116.58 179.778 118.477 179.597 120.705C179.483 122.205 178.994 123.58 178.131 124.83C177.29 126.057 176.222 127.045 174.926 127.795C173.631 128.523 172.278 128.886 170.869 128.886Z" fill="white"/>
<defs>
<linearGradient id="paint0_linear_6_2" x1="205" y1="141.5" x2="1.36168e-05" y2="33" gradientUnits="userSpaceOnUse">
<stop stop-color="#2E88FF"/>
<stop offset="1" stop-color="#00285B"/>
</linearGradient>
</defs>
</svg>
