<svg width="20" height="20" fill="none" xmlns="http://www.w3.org/2000/svg"><path d="M.25 3A2.75 2.75 0 013 .25h14A2.75 2.75 0 0119.75 3v14A2.75 2.75 0 0117 19.75H3A2.75 2.75 0 01.25 17V3z" fill="#fff" stroke="#000" stroke-width=".5"/><path d="M17.301 2.123c-.722-.44-1.527.408-2 .911-1.082 1.195-1.998 2.578-3.026 3.835-1.139 1.384-2.194 2.767-3.36 4.119-.666.754-1.388 1.571-1.833 2.514-1-1.1-1.86-2.294-2.971-3.269-.805-.691-2.138-1.194-2.11.472C2.055 12.874 3.75 15.2 5 16.677c.527.63 1.221 1.29 2.027 1.32.972.064 1.971-1.257 2.554-1.98 1.028-1.257 1.861-2.672 2.805-3.96 1.222-1.698 2.472-3.364 3.666-5.093.75-1.07 3.11-3.71 1.25-4.841zM3.222 10.579c-.028 0-.055 0-.11.031a1.257 1.257 0 01-.306-.125c.083-.063.222-.032.416.094z" fill="#8E49EB"/></svg>