<svg width="21" height="21" fill="none" xmlns="http://www.w3.org/2000/svg"><path d="M.571 3.571a3 3 0 013-3H16.45a3 3 0 013 3V16.45a3 3 0 01-3 3H3.571a3 3 0 01-3-3V3.57z" fill="#fff"/><rect x=".751" y=".781" width="18.5" height="18.5" rx="2.25" transform="rotate(-.092 .751 .78)" stroke="#8E49EB" stroke-width="1.5"/><path d="M17.337 2.157c-.72-.442-1.528.405-2.001.907C14.25 4.256 13.33 5.638 12.3 6.893c-1.142 1.38-2.2 2.761-3.37 4.11-.667.753-1.391 1.569-1.838 2.51-.997-1.102-1.855-2.298-2.964-3.275-.803-.694-2.135-1.2-2.111.467.05 2.169 1.74 4.499 2.985 5.98.527.63 1.22 1.29 2.025 1.324.971.065 1.974-1.253 2.559-1.974 1.03-1.256 1.867-2.668 2.813-3.955 1.226-1.695 2.48-3.358 3.678-5.085.752-1.067 3.118-3.702 1.26-4.838zM3.24 10.582a.19.19 0 00-.111.03 1.253 1.253 0 01-.305-.126c.083-.062.222-.03.416.096z" fill="#8E49EB"/></svg>