<svg width="21" height="21" viewBox="0 0 21 21" fill="none" xmlns="http://www.w3.org/2000/svg">
<path d="M0.571167 3.57129C0.571167 1.91444 1.91431 0.571289 3.57117 0.571289H16.4493C18.1062 0.571289 19.4493 1.91443 19.4493 3.57129V16.4495C19.4493 18.1063 18.1062 19.4495 16.4493 19.4495H3.57117C1.91431 19.4495 0.571167 18.1063 0.571167 16.4495V3.57129Z" fill="white"/>
<rect x="0.7512" y="0.780811" width="18.5" height="18.5" rx="2.25" transform="rotate(-0.0917212 0.7512 0.780811)" stroke="#8E49EB" stroke-width="1.5"/>
<path d="M17.3372 2.15718C16.6162 1.71544 15.8089 2.56239 15.3357 3.0643C14.2501 4.25642 13.3305 5.63753 12.3002 6.89264C11.1585 8.27325 10.1002 9.65405 8.93081 11.0032C8.26264 11.7562 7.53879 12.5719 7.09235 13.5139C6.09515 12.4114 5.23701 11.2149 4.12845 10.2379C3.32471 9.54446 1.99292 9.03847 2.01692 10.7046C2.06755 12.8739 3.75621 15.204 5.00248 16.6843C5.52867 17.3142 6.2214 17.9759 7.02664 18.0092C7.99842 18.0742 9.0011 16.7562 9.58589 16.0345C10.6162 14.7794 11.4525 13.3666 12.3995 12.0799C13.6252 10.3851 14.8786 8.72178 16.0766 6.9955C16.8288 5.92837 19.1951 3.29304 17.3372 2.15718ZM3.239 10.5817C3.21124 10.5816 3.18347 10.5815 3.12786 10.6128C3.01685 10.5812 2.93362 10.5495 2.82268 10.4864C2.90613 10.4237 3.04491 10.4554 3.239 10.5817Z" fill="#8E49EB"/>
</svg>
