<svg xmlns="http://www.w3.org/2000/svg" width="50" height="50"><path d="M25 4.168c-3.656 0-6.7 2.73-7.207 6.25h-7.129a1.57 1.57 0 00-.27-.023 1.15 1.15 0 00-.23.023H6.77a1.56 1.56 0 00-1.372 2.348c.286.488.809.785 1.372.777H9l2.621 27.113c.281 2.922 2.766 5.176 5.703 5.176h15.352c2.933 0 5.418-2.254 5.699-5.176L41 13.543h2.23a1.564 1.564 0 100-3.125h-3.394a1.534 1.534 0 00-.5 0h-7.129c-.508-3.52-3.55-6.25-7.207-6.25zm0 3.125a4.131 4.131 0 014.023 3.125h-8.046A4.131 4.131 0 0125 7.293zm-12.863 6.25h25.726l-2.597 26.812a2.583 2.583 0 01-2.59 2.352H17.324a2.59 2.59 0 01-2.594-2.352zm9.191 5.184a1.564 1.564 0 00-1.535 1.585v15.625a1.56 1.56 0 002.348 1.372c.488-.286.785-.809.777-1.371V20.312a1.573 1.573 0 00-.461-1.128 1.573 1.573 0 00-1.129-.457zm7.293 0a1.565 1.565 0 00-1.539 1.585v15.625a1.564 1.564 0 103.125 0V20.313a1.554 1.554 0 00-.457-1.13c-.3-.296-.707-.46-1.129-.456zm0 0" fill="#9b59b6"/></svg>