<?xml version="1.0" encoding="UTF-8"?>
<svg xmlns="http://www.w3.org/2000/svg" xmlns:xlink="http://www.w3.org/1999/xlink" viewBox="0 0 50 50" width="50px" height="50px">
<g id="surface257394903">
<path style=" stroke:none;fill-rule:nonzero;fill:rgb(60.784316%,34.901962%,71.372551%);fill-opacity:1;" d="M 25 4.167969 C 21.34375 4.167969 18.300781 6.898438 17.792969 10.417969 L 10.664062 10.417969 C 10.574219 10.402344 10.484375 10.394531 10.394531 10.394531 C 10.320312 10.394531 10.242188 10.402344 10.164062 10.417969 L 6.769531 10.417969 C 6.207031 10.410156 5.683594 10.703125 5.398438 11.191406 C 5.113281 11.679688 5.113281 12.28125 5.398438 12.765625 C 5.683594 13.253906 6.207031 13.550781 6.769531 13.542969 L 9 13.542969 L 11.621094 40.65625 C 11.902344 43.578125 14.386719 45.832031 17.324219 45.832031 L 32.675781 45.832031 C 35.609375 45.832031 38.09375 43.578125 38.375 40.65625 L 41 13.542969 L 43.230469 13.542969 C 43.792969 13.550781 44.316406 13.253906 44.601562 12.765625 C 44.886719 12.28125 44.886719 11.679688 44.601562 11.191406 C 44.316406 10.703125 43.792969 10.410156 43.230469 10.417969 L 39.835938 10.417969 C 39.671875 10.390625 39.503906 10.390625 39.335938 10.417969 L 32.207031 10.417969 C 31.699219 6.898438 28.65625 4.167969 25 4.167969 Z M 25 7.292969 C 26.957031 7.292969 28.5625 8.613281 29.023438 10.417969 L 20.976562 10.417969 C 21.4375 8.613281 23.042969 7.292969 25 7.292969 Z M 12.136719 13.542969 L 37.863281 13.542969 L 35.265625 40.355469 C 35.136719 41.703125 34.027344 42.707031 32.675781 42.707031 L 17.324219 42.707031 C 15.972656 42.707031 14.863281 41.703125 14.730469 40.355469 Z M 21.328125 18.726562 C 20.46875 18.742188 19.78125 19.449219 19.792969 20.3125 L 19.792969 35.9375 C 19.785156 36.5 20.078125 37.023438 20.566406 37.308594 C 21.054688 37.59375 21.65625 37.59375 22.140625 37.308594 C 22.628906 37.023438 22.925781 36.5 22.917969 35.9375 L 22.917969 20.3125 C 22.921875 19.890625 22.757812 19.484375 22.457031 19.183594 C 22.160156 18.886719 21.753906 18.722656 21.328125 18.726562 Z M 28.621094 18.726562 C 27.757812 18.742188 27.070312 19.449219 27.082031 20.3125 L 27.082031 35.9375 C 27.074219 36.5 27.371094 37.023438 27.859375 37.308594 C 28.34375 37.59375 28.945312 37.59375 29.433594 37.308594 C 29.921875 37.023438 30.214844 36.5 30.207031 35.9375 L 30.207031 20.3125 C 30.214844 19.890625 30.050781 19.484375 29.75 19.183594 C 29.449219 18.886719 29.042969 18.722656 28.621094 18.726562 Z M 28.621094 18.726562 "/>
</g>
</svg>
